<?xml version="1.0" standalone="no"?>
<!DOCTYPE svg PUBLIC "-//W3C//DTD SVG 20010904//EN"
 "http://www.w3.org/TR/2001/REC-SVG-20010904/DTD/svg10.dtd">
<svg version="1.0" xmlns="http://www.w3.org/2000/svg"
 width="1200.000000pt" height="1200.000000pt" viewBox="0 0 1200.000000 1200.000000"
 preserveAspectRatio="xMidYMid meet">
<metadata>
Created by potrace 1.14, written by Peter Selinger 2001-2017
</metadata>
<g transform="translate(0.000000,1200.000000) scale(0.100000,-0.100000)"
fill="#000000" stroke="none">
<path d="M5505 11944 c-1237 -103 -2411 -590 -3365 -1394 -163 -138 -474 -442
-616 -602 -502 -569 -887 -1218 -1147 -1934 -368 -1012 -451 -2141 -236 -3209
285 -1425 1097 -2711 2266 -3592 725 -547 1563 -920 2453 -1092 231 -44 527
-84 700 -93 l55 -3 3 2446 2 2446 -85 41 c-156 75 -294 186 -396 321 -63 83
-152 263 -179 361 -115 424 38 880 384 1145 198 150 401 218 656 218 155 0
231 -12 361 -58 462 -161 765 -639 711 -1122 -16 -145 -43 -237 -107 -368
-111 -226 -274 -388 -500 -497 l-85 -40 0 -2444 c0 -1343 3 -2445 8 -2447 9
-5 174 9 337 28 1958 238 3666 1425 4583 3185 611 1172 812 2542 566 3850
-192 1017 -629 1940 -1301 2745 -130 156 -433 467 -598 614 -418 373 -832 651
-1340 901 -696 343 -1382 531 -2163 595 -220 18 -745 18 -967 -1z"/>
</g>
</svg>
